<svg xmlns="http://www.w3.org/2000/svg" version="1.1" xmlns:xlink="http://www.w3.org/1999/xlink" xmlns:svgjs="http://svgjs.dev/svgjs" width="100%" height="100%" viewBox="0 0 1000 600"><rect width="1000" height="600" x="0" y="0" fill="#f7f7f7"/><g><rect width="333.3333333333333" height="333.3333333333333" rx="13.333333333333334" ry="13.333333333333334" y="108.95134254969898" fill="#000000" transform="matrix(1.4412690802761547,0,0,1.4412690802761547,0,-97.23970392477142)" x="86.72911834716797"/><path d="M248.76268515238462 228.74658217023685L248.76268515238462 228.74658217023685Q250.4666281304368 228.36792817511412 251.9001039691156 229.80140401379293Q253.33357980779448 231.23487985247178 253.14425281023313 233.12814982808536L253.14425281023313 233.12814982808536Q253.14425281023313 233.50680382320806 252.76559881511042 234.07478481589212Q252.38694481998766 234.64276580857617 252.1976178224263 235.02141980369888L252.1976178224263 235.02141980369888Q251.7919171133663 237.32039048837245 250.7641419837475 238.94319332461268Q249.70932014019138 240.5389494469155 248.57335815482327 241.48558443472226L248.57335815482327 241.48558443472226Q246.49076118164834 241.89128514378237 245.43593933809223 240.83646330022626Q244.3811174945361 239.7816414566701 244.0024634994134 238.26702547617927L244.0024634994134 238.26702547617927Q244.3811174945361 237.69904448349521 244.3811174945361 236.94173649324975Q244.3811174945361 236.18442850300434 244.57044449209747 235.58940079638293L244.57044449209747 235.58940079638293Q244.75977148965882 234.83209280613752 245.13842548478152 234.26411181345347Q245.51707947990423 233.6961308207694 245.70640647746558 232.93882283052395L245.70640647746558 232.93882283052395Q245.92278018896428 231.9921878427172 245.92278018896428 231.31601999428378Q245.92278018896428 230.66689885978772 246.49076118164834 229.9095908695423L246.49076118164834 229.9095908695423Q247.0587421743324 229.72026387198096 247.51853631126716 229.42275001867026Q248.00537716213915 229.12523616535952 248.76268515238462 228.74658217023685ZM202.16119703835392 241.2962574371609L202.53985103347662 241.2962574371609Q202.16119703835392 240.91760344203826 201.7014029014192 240.5389494469155Q201.21456205054713 240.1602954517928 200.83590805542443 239.7816414566701L200.83590805542443 239.7816414566701Q200.078600065179 238.07769847861792 200.26792706274034 235.995101505443Q200.45725406030172 233.88545781833076 201.97187004079257 233.50680382320806L201.97187004079257 233.50680382320806Q203.51353273522074 232.3708418378399 204.0815137279048 232.56016883540124L204.0815137279048 232.56016883540124Q205.21747571327293 232.93882283052395 206.05592384533037 234.18297167164147Q206.92141869132513 235.40007379882158 207.30007268644783 237.02287663506175Q207.67872668157054 238.64567947130197 207.4893996840092 240.1602954517928Q207.30007268644783 241.67491143228366 206.35343769864107 242.45926613646637L206.35343769864107 242.45926613646637Q205.40680271083428 243.21657412671183 203.97332687215544 242.72973327583978Q202.53985103347662 242.26993913890507 202.16119703835392 241.2962574371609L202.16119703835392 241.2962574371609ZM283.76113298729797 305.58629646620966L283.76113298729797 305.58629646620966Q283.1931519946139 306.5329314540164 282.32765714861915 306.9115854491391Q281.4621623026244 307.29023944426183 280.7048543123789 308.04754743450724L280.7048543123789 308.04754743450724Q280.13687331969487 308.42620142962994 279.75821932457217 309.02122913625135Q279.37956532944946 309.5892101289354 278.62225733920405 309.77853712649676L278.62225733920405 309.77853712649676Q277.2969683562746 310.15719112161946 275.75530566184636 309.77853712649676Q274.24068968135555 309.39988313137405 273.29405469354873 308.83190213869L273.29405469354873 308.83190213869Q272.5367467033033 305.775623463771 273.6727086886715 303.96349362996943Q274.8086706740396 302.15136379616797 276.91831436115183 301.9620367986065L276.91831436115183 301.9620367986065Q278.24360334408135 302.7463915027894 279.8664061803215 301.9620367986065Q281.4621623026244 301.2047288083611 282.62517100192986 302.3406907937293L282.62517100192986 302.3406907937293Q282.8144979994912 303.5036994930348 283.2742921364259 304.07168048571884Q283.76113298729797 304.6396614784029 283.76113298729797 305.58629646620966ZM264.3686390942277 313.1864230826012L264.3686390942277 313.1864230826012Q264.17931209666637 314.3223850679693 264.17931209666637 315.4853937672748Q264.17931209666637 316.6213557526429 263.0163033973609 317.0000097477656L263.0163033973609 317.0000097477656Q260.5550524290633 318.1359717331337 259.41909044369515 316.6213557526429Q258.28312845832704 315.1067397721521 258.4724554558884 313.1864230826012L258.4724554558884 313.1864230826012Q259.2297634461338 312.61844208991715 259.87888458062986 311.86113409967174Q260.5550524290633 311.10382610942634 261.5016874168701 310.72517211430363L261.5016874168701 310.72517211430363Q263.3949573924836 312.0504610972331 264.3686390942277 313.1864230826012ZM242.48784751892254 348.94217890775997L242.48784751892254 348.94217890775997Q242.48784751892254 346.29160094190104 243.6238095042907 344.5606112499114Q244.75977148965882 342.85666827185923 245.92278018896428 341.7207062864911L245.92278018896428 341.7207062864911Q248.00537716213915 340.9633982962457 249.14133914750732 340.39541730356166L249.14133914750732 340.39541730356166Q251.03460912312084 341.15272529380707 251.33212297643155 342.47801427673653Q251.60259011580496 343.803303259666 251.03460912312084 345.23677909834487Q250.4666281304368 346.67025493702374 249.24952600325668 347.80621692239185Q248.00537716213915 348.94217890775997 246.86941517677104 349.510159900444L246.86941517677104 349.510159900444Q244.3811174945361 351.24114959243354 243.81313650185206 350.26746789068943Q243.24515550916794 349.32083290288267 242.48784751892254 348.94217890775997ZM235.64502889277645 214.87161792038324L235.64502889277645 214.87161792038324Q236.2130098854605 214.4929639252605 236.78099087814456 213.8167960768271Q237.34897187082862 213.16767494233105 237.91695286351268 213.16767494233105L237.91695286351268 213.16767494233105Q238.29560685863538 212.59969394964696 238.9717747070688 212.30218009633626Q239.6208958415649 212.0317129569629 240.78390454087037 211.6530589618402L240.78390454087037 211.6530589618402Q241.73053952867713 211.24735825278015 242.75831465829594 210.86870425765744Q243.81313650185206 210.49005026253474 244.75977148965882 211.24735825278015L244.75977148965882 211.24735825278015Q245.70640647746558 211.0580312552188 246.7612283210217 210.67937726009606Q247.8160501645778 210.30072326497339 248.76268515238462 210.67937726009606L248.76268515238462 210.67937726009606Q250.08797413531408 210.49005026253474 251.41326311824355 210.21958312316136Q252.76559881511042 209.92206926985068 254.28021479560124 210.30072326497339L254.28021479560124 210.30072326497339Q257.1201197590216 209.3540882771666 260.3657254315019 209.16476127960524Q263.58428439004496 208.9754342820439 266.640563064964 208.78610728448254L266.640563064964 208.78610728448254Q269.10181403326163 208.9754342820439 270.0484490210684 208.5967802869212Q271.0221307228125 208.21812629179848 271.96876571061927 208.21812629179848L271.96876571061927 208.21812629179848Q274.0513626837942 208.5967802869212 275.8634925175957 209.7327422722893Q277.6756223513973 210.86870425765744 279.9475463221335 211.24735825278015L279.9475463221335 211.24735825278015Q281.27283530506304 212.22103995452426 282.03014329530845 213.4381420817044Q282.8144979994912 214.68229092282186 283.9504599848593 215.62892591062865L283.9504599848593 215.62892591062865Q285.08642197022743 216.7648878959968 286.3305708113449 216.87307475174615Q287.54767293852507 216.95421489355815 288.3049809287705 217.7385695977409L288.3049809287705 217.7385695977409Q289.46798962807594 217.7385695977409 290.03597062076 218.1172235928636Q290.60395161344405 218.4958775879863 291.3612596036895 218.87453158310902L291.3612596036895 218.87453158310902Q292.3078945914963 221.1464555538453 294.01183756954845 222.47174453677476Q295.742827261538 223.8240802336416 296.3108082542221 226.47465819950057L296.3108082542221 226.47465819950057Q298.01475123227425 229.31456316292088 298.88024607826907 230.288244864665Q299.7186942103265 231.23487985247178 300.0973482054492 232.56016883540124L300.0973482054492 232.56016883540124Q301.26035690475464 233.88545781833076 301.72015104168935 234.37229866920282Q302.2069918925614 234.83209280613752 302.2069918925614 235.80577450788164L302.2069918925614 235.80577450788164Q303.5322808754909 237.32039048837245 303.8297947288016 239.7005013148581Q304.100261868175 242.08061214134372 305.2362238535431 243.7845551193959L305.2362238535431 243.7845551193959Q305.04689685598174 244.5418631096413 305.34441070929245 245.40735795563606Q305.61487784866586 246.24580608769352 305.2362238535431 246.62446008281623L305.2362238535431 246.62446008281623Q306.18285884134986 247.571095070623 305.99353184378856 249.0045709093018Q305.8042048462272 250.43804674798068 306.56151283647256 251.5740087333488L306.56151283647256 251.5740087333488Q306.18285884134986 255.38759539851324 306.3721858389112 258.90366821036696Q306.56151283647256 262.4197410222207 305.99353184378856 266.6119816825078L305.99353184378856 266.6119816825078Q306.18285884134986 267.3692896727532 305.72306470441515 268.3159246605601Q305.2362238535431 269.26255964836685 305.61487784866586 270.2091946361736L305.61487784866586 270.2091946361736Q305.2362238535431 270.5878486312963 305.1550837117311 271.26401647972966Q305.04689685598174 271.9131376142258 304.4789158632977 272.1024646117871L304.4789158632977 272.1024646117871Q303.5322808754909 274.21210829889935 302.2069918925614 276.02423813270093Q300.88170290963194 277.80932125256516 299.7186942103265 279.9189649396774L299.7186942103265 279.9189649396774Q298.58273222495836 280.86559992748414 298.1229380880236 281.5417677759176Q297.63609723715155 282.1908889104136 297.0681162444675 282.38021590797496L297.0681162444675 282.38021590797496Q296.6894622493448 283.8948318884658 294.9855192712926 284.4898595950872Q293.25452957930304 285.05784058777124 292.49722158905763 286.3831295707008L292.49722158905763 286.3831295707008Q290.9826056085668 287.1404375609462 290.7932786110054 287.8166054093796Q290.60395161344405 288.4657265438757 290.22529761832135 288.8443805389984L290.22529761832135 288.8443805389984Q288.5213546402692 289.6016885292438 287.54767293852507 290.9540242261106L287.54767293852507 290.9540242261106Q285.8437299604729 292.2793132090401 283.84227312910997 293.11776134109755Q281.8408162977471 293.98325618709237 280.13687331969487 294.9298911748991L280.13687331969487 294.9298911748991Q278.8115843367654 295.4978721675832 278.135416488332 296.17404001601653Q277.48629535383594 296.85020786445 276.3503333684678 296.85020786445L276.3503333684678 296.85020786445Q274.0513626837942 298.3648238449408 272.5367467033033 299.0139449794369Q271.0221307228125 299.6901128278703 269.85912202350704 299.5007858303089L269.85912202350704 299.5007858303089Q269.6697950259457 299.87943982543163 268.8313468938883 300.068766822993Q267.96585204789346 300.25809382055434 267.58719805277076 299.87943982543163L267.58719805277076 299.87943982543163Q267.0192170600867 300.4474208181157 266.07258207227994 300.5556076738651Q265.1259470844732 300.63674781567704 264.3686390942277 300.8260748132384L264.3686390942277 300.8260748132384Q263.20563039492225 301.39405580592245 261.8803414119928 301.88089665679456Q260.5550524290633 302.3406907937293 259.04043644857245 302.7463915027894L259.04043644857245 302.7463915027894Q258.4724554558884 302.9357185003506 257.796287607455 302.8275316446013Q257.1201197590216 302.7463915027894 256.5521387663375 302.9357185003506L256.5521387663375 302.9357185003506Q254.65886879072394 304.07168048571884 253.98270094229053 303.96349362996943Q253.33357980779448 303.8823534881575 252.38694481998766 303.8823534881575L252.38694481998766 303.8823534881575Q251.2239361206822 303.3143724954733 249.89864713775273 303.3955126372854Q248.57335815482327 303.5036994930348 247.1398823161444 303.58483963484673Q245.70640647746558 303.69302649059614 244.3811174945361 303.69302649059614Q243.0558285116066 303.69302649059614 241.73053952867713 303.1250454979121L241.73053952867713 303.1250454979121Q239.8372695530636 304.07168048571884 237.83581272170068 303.58483963484673Q235.8343558903378 303.1250454979121 233.75175891716287 303.3143724954733L233.75175891716287 303.3143724954733Q232.5887502178574 305.96495046133236 232.9674042129801 307.01977230488853Q233.34605820810282 308.04754743450724 233.34605820810282 309.2105561338127L233.34605820810282 309.2105561338127Q233.15673121054147 312.4291150923558 233.45424506385217 313.5650770777239Q233.75175891716287 314.701039063092 233.34605820810282 315.67472076483614L233.34605820810282 315.67472076483614Q233.53538520566417 318.1359717331337 233.75175891716287 320.02924170874735Q233.94108591472423 321.9495583982982 233.75175891716287 324.0321553714731L233.75175891716287 324.0321553714731Q234.31973990984693 328.9817040220057 235.2663748976537 331.4429549903033Q236.2130098854605 333.9312526725382 238.29560685863538 335.44586865302904L238.29560685863538 335.44586865302904Q238.4849338561968 337.1498116310813 238.9717747070688 338.3939604721987Q239.43156884400355 339.63810931331625 239.05291484888085 341.15272529380707L239.05291484888085 341.15272529380707Q239.05291484888085 341.9100332840525 238.67426085375808 342.47801427673653Q238.29560685863538 343.0459952694206 238.10627986107403 343.61397626210464L238.10627986107403 343.61397626210464Q237.72762586595132 344.5606112499114 237.53829886838997 345.6154330934676Q237.34897187082862 346.67025493702374 236.40233688302186 347.04890893214645L236.40233688302186 347.04890893214645Q236.02368288789916 347.42756292726915 235.4557018952151 347.31937607151974Q234.887720902531 347.2382359297078 234.31973990984693 347.42756292726915L234.31973990984693 347.42756292726915Q232.2100962227347 347.9955439199532 231.64211523005065 348.29305777326385Q231.0741342373666 348.56352491263726 230.50615324468248 348.94217890775997L230.50615324468248 348.94217890775997Q229.74884525443707 348.94217890775997 229.26200440356502 348.8610387659479Q228.8022102666303 348.7528519101986 228.0449022763849 349.1315059053213L228.0449022763849 349.1315059053213Q225.55660459414992 350.26746789068943 224.4206426087818 349.99700075131614Q223.2846806234137 349.6994868980054 222.14871863804552 349.32083290288267L222.14871863804552 349.32083290288267Q221.1750369363014 349.8888138955667 220.417728946056 349.32083290288267Q219.6604209558106 348.7528519101986 218.90311296556519 348.3741979150759L218.90311296556519 348.3741979150759Q216.82051599239026 348.3741979150759 216.14434814395685 348.3741979150759Q215.4952270094608 348.3741979150759 215.08952630040073 347.9955439199532L215.08952630040073 347.9955439199532Q213.38558332234854 348.3741979150759 212.6282753321031 347.04890893214645Q211.8709673418577 345.723619949217 210.73500535648958 345.1285922425956L210.73500535648958 345.1285922425956Q210.1670243638055 340.9633982962457 209.59904337112144 338.8537546091335Q209.00401566450003 336.7711576359586 208.43603467181595 333.9312526725382L208.43603467181595 333.9312526725382Q208.43603467181595 332.38958997811005 208.43603467181595 330.7938338558072Q208.43603467181595 329.17103101956707 209.00401566450003 328.03506903419895L209.00401566450003 328.03506903419895Q209.19334266206138 326.1147523446481 209.59904337112144 325.73609834952526L209.59904337112144 325.73609834952526Q209.00401566450003 324.7894633617185 209.68018351293344 323.84282837391174Q210.35635136136685 322.896193386105 209.97769736624414 322.1388853958596L209.97769736624414 322.1388853958596Q210.54567835892823 319.27193371850194 210.92433235405093 317.6491308822617Q211.30298634917364 316.05337475995884 211.30298634917364 314.3223850679693L211.30298634917364 314.3223850679693Q212.2496213369804 313.37575008016256 212.3307614787924 311.86113409967174Q212.43894833454175 310.3465181191808 213.5749103199099 309.5892101289354L213.5749103199099 309.5892101289354Q213.19625632478719 308.6155284271913 213.8724241732206 307.66889343938453Q214.52154530771668 306.7222584515778 214.71087230527803 305.58629646620966L214.71087230527803 305.58629646620966Q215.4952270094608 301.9620367986065 215.00838615858873 299.87943982543163Q214.52154530771668 297.79684285225676 214.14289131259397 294.7405641773378L214.14289131259397 294.7405641773378Q214.52154530771668 292.2793132090401 214.14289131259397 291.0351643679227Q213.76423731747124 289.79101552680515 214.14289131259397 288.4657265438757L214.14289131259397 288.4657265438757Q213.76423731747124 287.7084185536303 213.95356431503262 286.6535967100741Q214.14289131259397 285.6258215804554 213.76423731747124 285.05784058777124L213.76423731747124 285.05784058777124Q214.33221831015533 283.3268508957817 214.44040516590468 282.1908889104136Q214.52154530771668 281.0549269250455 215.2788532979621 280.10829193723873L215.2788532979621 280.10829193723873Q215.4952270094608 277.6199942550038 216.06320800214485 275.9160512769515Q216.6311889948289 274.21210829889935 217.0098429899516 272.5081653208472L217.0098429899516 272.5081653208472Q217.0098429899516 270.966502626419 216.90165613420226 270.3173814919229Q216.82051599239026 269.64121364348955 217.0098429899516 268.6945786556828L217.0098429899516 268.6945786556828Q217.3884969850743 267.93727066543727 217.0909831317636 267.45042981456527Q216.82051599239026 266.9906356776305 217.0098429899516 266.6119816825078L217.0098429899516 266.6119816825078Q217.0098429899516 265.07031898807963 217.19916998751296 263.5557030075888Q217.3884969850743 262.041087027098 217.76715098019702 260.5264710466072L217.76715098019702 260.5264710466072Q217.3884969850743 258.41682735949496 217.46963712688637 258.03817336437226Q217.57782398263566 257.65951936924944 217.19916998751296 257.4701923716881L217.19916998751296 257.4701923716881Q217.76715098019702 254.06230641558378 217.46963712688637 250.92488759885273Q217.19916998751296 247.76042206818434 217.95647797775837 244.1632091145186L217.95647797775837 244.1632091145186Q217.19916998751296 242.83792013158913 217.76715098019702 241.10693043959955Q218.33513197288113 239.40298746154738 217.76715098019702 238.45635247374062L217.76715098019702 238.45635247374062Q217.95647797775837 235.995101505443 217.76715098019702 234.64276580857617Q217.57782398263566 233.3174768256467 217.0098429899516 232.56016883540124L217.0098429899516 232.56016883540124Q216.06320800214485 231.23487985247178 215.8738810045835 230.66689885978772L215.8738810045835 230.66689885978772Q214.90019930283938 230.09891786710367 214.2510781683433 229.31456316292088Q213.5749103199099 228.5572551726755 213.0069293272258 227.79994718243006L213.0069293272258 227.79994718243006Q211.68164034429634 227.42129318730736 210.73500535648958 226.66398519706192Q209.7883703686828 225.9066772068165 208.81468866693868 225.33869621413243L208.81468866693868 225.33869621413243Q207.8680536791319 223.63475323608026 207.4082595421972 221.9037635440907Q206.92141869132513 220.1998205660385 206.54276469620243 217.92789659530226L206.54276469620243 217.92789659530226Q207.11074568888648 217.33286888868085 206.73209169376378 216.49442075662344Q206.35343769864107 215.62892591062865 206.73209169376378 215.0609449179446L206.73209169376378 215.0609449179446Q206.73209169376378 213.3570019398924 206.73209169376378 211.7341991036522Q206.73209169376378 210.11139626741203 207.30007268644783 208.78610728448254L207.30007268644783 208.78610728448254Q209.00401566450003 204.59386662419539 213.19625632478719 203.26857764126592L213.19625632478719 203.26857764126592Q214.90019930283938 201.75396166077505 217.3884969850743 201.267120809903Q219.84974795337195 200.8073266729683 222.52737263316823 200.61799967540694L222.52737263316823 200.61799967540694Q224.60996960634316 200.61799967540694 225.74593159171127 200.8073266729683Q226.88189357707944 200.99665367052964 228.4235562715076 201.37530766565234L228.4235562715076 201.37530766565234Q231.4527882324893 203.45790463882727 233.75175891716287 204.8913804775061Q236.02368288789916 206.3248563161849 236.5916638805832 209.16476127960524L236.5916638805832 209.16476127960524Q236.97031787570592 210.49005026253474 235.9154960321498 211.92352610121355Q234.887720902531 213.3570019398924 235.64502889277645 214.87161792038324ZM260.3657254315019 223.8240802336416L260.3657254315019 223.8240802336416L253.71223380291718 223.41837952458155Q252.00829082486496 223.41837952458155 250.8452821255595 223.71589337789223Q249.70932014019138 224.01340723120296 248.38403115726192 224.20273422876429L248.38403115726192 224.20273422876429Q245.13842548478152 224.20273422876429 244.11065035516276 225.04118236082172Q243.0558285116066 225.9066772068165 242.10919352379983 226.85331219462327L242.10919352379983 226.85331219462327Q241.73053952867713 228.5572551726755 241.24369867780507 230.36938500647702Q240.78390454087037 232.18151484027854 240.2159235481863 233.6961308207694L240.2159235481863 233.6961308207694Q240.40525054574766 234.64276580857617 239.9184096948756 235.21074680126023Q239.43156884400355 235.80577450788164 239.43156884400355 236.7524094956884L239.43156884400355 236.7524094956884Q240.02659655062496 237.32039048837245 239.8372695530636 238.07769847861792Q239.6208958415649 238.83500646886333 239.43156884400355 239.7816414566701L239.43156884400355 239.7816414566701Q239.43156884400355 240.5389494469155 239.5397556997529 241.21511729534896Q239.6208958415649 241.89128514378237 239.6208958415649 242.45926613646637L239.6208958415649 242.45926613646637Q239.6208958415649 243.59522812183454 239.2422418464422 244.6230032514533Q238.8635878513195 245.67782509500947 238.67426085375808 247.00311407793893L238.67426085375808 247.00311407793893Q238.4849338561968 248.35544977480575 238.4849338561968 249.49141176017386Q238.4849338561968 250.62737374554203 238.10627986107403 251.76333573091014L238.10627986107403 251.76333573091014Q238.4849338561968 253.27795171140096 238.40379371438473 255.00894140339054Q238.29560685863538 256.7128843814427 238.29560685863538 258.2275003619336L238.29560685863538 258.2275003619336Q238.10627986107403 258.79548135461766 238.29560685863538 259.3634623473017Q238.4849338561968 259.9314433399858 238.29560685863538 260.33714404904583L238.29560685863538 260.33714404904583Q237.53829886838997 263.36637601002747 237.07850473145527 263.9343570027115Q236.5916638805832 264.5023379953956 236.40233688302186 265.44897298320234L236.40233688302186 265.44897298320234Q236.2130098854605 266.42265468494645 236.2941500272725 266.9906356776305Q236.40233688302186 267.55861667031456 236.40233688302186 267.93727066543727L236.40233688302186 267.93727066543727Q235.07704790009234 269.0732326508055 235.4557018952151 271.0746894821683Q235.8343558903378 273.07614631353124 235.4557018952151 274.7800892915834L235.4557018952151 274.7800892915834Q236.02368288789916 275.72672427939017 235.9154960321498 276.67335926719704Q235.8343558903378 277.6199942550038 236.40233688302186 278.5936759567479L236.40233688302186 278.5936759567479Q237.15964487326727 280.10829193723873 237.83581272170068 280.37875907661214Q238.4849338561968 280.6762729299228 239.6208958415649 280.6762729299228L239.6208958415649 280.6762729299228Q242.10919352379983 281.4335809201682 242.75831465829594 282.75886990309766Q243.43448250672935 284.0841588860271 245.13842548478152 284.4898595950872L245.13842548478152 284.4898595950872Q246.301434184087 283.7055048909044 247.4373961694551 282.948196900659L247.4373961694551 282.948196900659Q248.19470415970056 282.5695429055363 248.95201214994597 282.10974876860166Q249.70932014019138 281.62290791772955 250.27730113287544 281.24425392260684L250.27730113287544 281.24425392260684Q252.38694481998766 280.6762729299228 253.03606595448377 280.37875907661214Q253.71223380291718 280.10829193723873 254.28021479560124 280.48694593236144L254.28021479560124 280.48694593236144Q256.5521387663375 279.5403109445547 257.22830661477093 279.05347009368256Q257.877427749267 278.5936759567479 258.8511094510111 278.9723299518706L258.8511094510111 278.9723299518706Q261.8803414119928 277.80932125256516 263.9629383851677 278.5936759567479Q266.07258207227994 279.3509839469933 267.58719805277076 279.729637942116L267.58719805277076 279.729637942116Q267.96585204789346 279.3509839469933 268.8313468938883 279.05347009368256Q269.6697950259457 278.78300295430927 270.2648227325671 278.9723299518706L270.2648227325671 278.9723299518706Q271.7794387130579 277.80932125256516 273.86203568623284 277.3495271156304Q275.9446326594077 276.8626862647584 277.6756223513973 275.9160512769515L277.6756223513973 275.9160512769515Q279.9475463221335 275.5373972818288 280.6237141705669 274.96941628914476Q281.27283530506304 274.4014352964607 282.2194702928698 274.21210829889935L282.2194702928698 274.21210829889935Q283.38247899217527 273.45480030865394 283.84227312910997 272.1024646117871Q284.329113979982 270.77717562885766 285.2757489677888 269.8305406410509L285.2757489677888 269.8305406410509Q286.6010379507183 267.3692896727532 286.41171095315696 266.5037948267585Q286.2223839555956 265.6382999807637 286.41171095315696 264.5023379953956L286.41171095315696 264.5023379953956Q287.16901894340236 262.041087027098 286.70922480646766 260.71579804416854Q286.2223839555956 259.3634623473017 286.41171095315696 257.8488463668108L286.41171095315696 257.8488463668108Q286.2223839555956 255.38759539851324 286.03305695803425 254.71142755007978Q285.8437299604729 254.06230641558378 285.46507596535014 253.4672787089623Q285.08642197022743 252.89929771627826 284.78890811691673 252.3313167235942Q284.5184409775434 251.76333573091014 284.70776797510473 251.00602774066473L284.70776797510473 251.00602774066473Q283.1931519946139 247.97679577968304 282.62517100192986 246.43513308525488Q282.03014329530845 244.920517104764 281.08350830750163 243.59522812183454L281.08350830750163 243.59522812183454Q280.7048543123789 242.64859313402772 280.4343871730056 242.16175228315572Q280.13687331969487 241.67491143228366 280.5155273148176 241.2962574371609L280.5155273148176 241.2962574371609Q279.1902383318881 240.7282764444769 279.5688923270108 239.21366046398603L279.5688923270108 239.21366046398603Q277.48629535383594 236.56308249812705 276.7289873635905 234.45343881101482L276.7289873635905 234.45343881101482Q274.4300166789169 230.288244864665 272.6178868451153 228.17860117755276Q270.83280372525115 226.09600420437786 267.7765250503321 226.09600420437786L267.7765250503321 226.09600420437786Q266.640563064964 225.71735020925516 265.9643952165306 225.04118236082172Q265.31527408203453 224.39206122632567 264.3686390942277 224.58138822388702L264.3686390942277 224.58138822388702Q262.82697639979955 224.01340723120296 261.98852826774214 223.71589337789223Q261.1230334217474 223.41837952458155 260.3657254315019 223.8240802336416Z " fill="#c3c3c3" transform="matrix(1.4412690802761547,0,0,1.4412690802761547,0,-97.23970392477142)"/><path d="M581.3926608984202 200.6180003279142L581.3926608984202 200.6180003279142Q582.4853601641481 201.16434996077808 582.7455266559881 202.17899927895394Q583.0317097970121 203.16763194794578 582.5634101117 204.1822812661216Q582.1211270755722 205.19693058429743 581.2885943016843 205.92539676144932Q580.4560615277965 206.65386293860118 579.5454788063566 206.65386293860118L579.5454788063566 206.65386293860118Q578.4527795406289 206.83597948288914 577.360080274901 205.82133016471332Q576.2673810091732 204.8066808465375 576.6316140977491 202.98551540365779L576.6316140977491 202.98551540365779Q576.995847186325 202.4391657707939 577.5421968191889 202.07493268221796Q578.0885464520529 201.710699593642 578.6348960849168 201.16434996077808L578.6348960849168 201.16434996077808Q579.5454788063566 201.16434996077808 580.0137784916685 200.98223341649012Q580.4560615277965 200.80011687220215 581.3926608984202 200.6180003279142ZM575.1486650942613 269.58813731468683L575.1486650942613 269.58813731468683Q576.4494975534611 267.0124890454713 575.3307816385493 264.2807408811517L575.3307816385493 264.2807408811517Q575.9031479205971 262.79779187766394 576.1633144124371 260.79450989049633Q576.4494975534611 258.7912279033286 576.4494975534611 256.9440458112649L576.4494975534611 256.9440458112649Q575.7210313763092 254.21229764694536 575.4348482352852 251.45453283344185Q575.1486650942613 248.72278466912226 574.7844320056854 246.1731530490907L574.7844320056854 246.1731530490907Q575.1486650942613 245.4186702227548 575.0706151467093 244.14385441273905Q574.9665485499734 242.86903860272324 575.7210313763092 242.32268896985934L575.7210313763092 242.32268896985934Q575.3307816385493 239.3828076120678 575.5389148320212 236.65105944774828Q575.7210313763092 233.8932946342447 575.9031479205971 230.79731338134923L575.9031479205971 230.79731338134923Q575.9031479205971 230.2509637484853 575.7210313763092 229.7046141156214Q575.5389148320212 229.1582644827575 575.7210313763092 228.6119148498936L575.7210313763092 228.6119148498936Q576.0852644648851 226.94684930211787 575.9031479205971 226.50456626598995Q575.7210313763092 226.03626658067802 575.7210313763092 225.4899169478141L575.7210313763092 225.4899169478141Q575.5389148320212 224.9435673149502 575.7210313763092 224.39721768208628Q575.9031479205971 223.85086804922236 575.7210313763092 223.30451841635846L575.7210313763092 223.30451841635846Q575.7210313763092 222.75816878349454 575.5389148320212 222.28986909818263Q575.3307816385493 221.8215694128707 575.3307816385493 221.2752197800068L575.3307816385493 221.2752197800068Q575.1486650942613 219.81828742570303 575.7990813238612 218.25728847466328Q576.4494975534611 216.72230617280755 576.2673810091732 215.2393571693198L576.2673810091732 215.2393571693198Q576.8137306420371 214.32877444787994 577.5421968191889 213.23607518215212Q578.2706629963409 212.14337591642428 579.5454788063566 211.9612593721363L579.5454788063566 211.9612593721363Q580.0918284392205 211.0506766506965 582.0170604788361 210.21814387680863Q583.942292518452 209.38561110292076 585.3992248727557 209.56772764720873L585.3992248727557 209.56772764720873Q586.3098075941955 209.56772764720873 587.4285235091073 210.03602733252066Q588.5212227748352 210.47831036864855 589.613922040563 210.66042691293652L589.613922040563 210.66042691293652Q590.5245047620028 210.86856010640852 591.2529709391547 210.86856010640852Q591.9814371163066 210.86856010640852 592.5277867491704 210.86856010640852L592.5277867491704 210.86856010640852Q593.4643861197943 211.23279319498445 594.0107357526582 211.67507623111237Q594.5570853855222 212.14337591642428 595.467668106962 212.50760900500023L595.467668106962 212.50760900500023Q597.8351831827056 214.14665790359197 598.4855994123054 215.8897733989197Q599.1360156419054 217.63288889424737 599.3181321861933 219.63617088141507Q599.5002487304813 221.63945286858274 599.3181321861933 223.6687515049344Q599.1360156419054 225.67203349210206 598.5636493598574 226.94684930211787L598.5636493598574 226.94684930211787Q597.6530666384176 229.1582644827575 596.5603673726898 231.16154646992518Q595.467668106962 233.16482845709285 594.0107357526582 234.82989400486858L594.0107357526582 234.82989400486858Q593.8286192083702 236.83317599203625 594.3749688412342 238.02994185450004Q594.9213184740981 239.20069106777984 594.9213184740981 240.6836400712676L594.9213184740981 240.6836400712676Q595.467668106962 242.32268896985934 595.467668106962 244.61215409805098Q595.467668106962 246.90161922624256 595.1034350183861 248.72278466912226L595.1034350183861 248.72278466912226Q595.64978465125 253.11959838121757 595.64978465125 257.6985286376008L595.64978465125 257.6985286376008Q595.831901195538 258.2448782704647 595.64978465125 258.8692778508806Q595.467668106962 259.51969408048046 595.64978465125 260.06604371334447L595.64978465125 260.06604371334447Q595.64978465125 260.9766264347843 595.90995114309 261.70509261193615Q596.1961342841139 262.433558789088 596.0140177398259 263.16202496623987L596.0140177398259 263.16202496623987Q596.0140177398259 264.2807408811517 595.3636015102261 265.00920705830356Q594.7392019298102 265.73767323545553 594.1928522969462 266.4661394126074Q593.6465026640824 267.19460558975925 593.2822695755063 268.02713836364717Q592.8920198377464 268.83365448835093 593.4643861197943 269.95237040326276L593.4643861197943 269.95237040326276Q595.2855515626741 270.3166034918387 597.0286670580017 270.8629531247027Q598.7457659041455 271.4093027575666 599.6823652747693 273.23046820044624L599.6823652747693 273.23046820044624Q599.6823652747693 274.323167466174 600.0465983633452 275.051633643326Q600.4108314519211 275.8061164696618 600.957181084785 276.53458264681376L600.957181084785 276.53458264681376Q600.957181084785 280.5411466211491 599.6823652747693 282.4663786607647Q598.3815328155695 284.3916107003804 597.4709500941296 286.3948926875481L597.4709500941296 286.3948926875481Q596.5603673726898 286.75912577612405 596.3782508284019 287.6957251467479Q596.1961342841139 288.60630786818774 596.0140177398259 289.51689058962756L596.0140177398259 289.51689058962756Q595.831901195538 291.8844056653712 596.0140177398259 292.4307552982351Q596.1961342841139 293.00312158028294 596.3782508284019 293.367354668859L596.3782508284019 293.367354668859Q596.7424839169778 294.64217047887473 596.6644339694258 295.7348697446025Q596.5603673726898 296.8275690103303 596.5603673726898 298.28450136463414L596.5603673726898 298.28450136463414Q596.1961342841139 300.13168345669783 596.4823174251378 301.9528488995776Q596.7424839169778 303.77401434245724 595.831901195538 305.07484680165703L595.831901195538 305.07484680165703Q595.467668106962 306.53177915596075 595.727834598802 308.45701119557646Q596.0140177398259 310.38224323519216 595.64978465125 311.8391755894959L595.64978465125 311.8391755894959Q595.64978465125 313.4782244880877 596.1961342841139 314.9351568423914Q596.7424839169778 316.41810584587915 596.7424839169778 317.87503820018287L596.7424839169778 317.87503820018287Q596.1961342841139 320.4246698202145 596.1180843365619 321.3352525416543Q596.0140177398259 322.2718519122782 595.64978465125 323.182434633718L595.64978465125 323.182434633718Q595.831901195538 325.1857166208857 596.1961342841139 327.11094866050144Q596.5603673726898 329.03618070011703 596.5603673726898 331.4036957758607L596.5603673726898 331.4036957758607Q596.5603673726898 332.8606281301645 596.0140177398259 334.1614605893643Q595.467668106962 335.43627639938006 595.64978465125 336.7110922093958L595.64978465125 336.7110922093958Q595.831901195538 337.62167493083564 596.1961342841139 338.45420770472356Q596.5603673726898 339.26072382942743 596.5603673726898 340.1973232000512L596.5603673726898 340.1973232000512Q596.5603673726898 340.37943974433915 596.3782508284019 341.2900224657791Q596.1961342841139 342.2006051872189 596.0140177398259 342.56483827579484L596.0140177398259 342.56483827579484Q595.831901195538 342.92907136437077 595.467668106962 343.39737104968276Q595.1034350183861 343.8396540858107 594.7392019298102 344.20388717438664L594.7392019298102 344.20388717438664Q593.6465026640824 345.6868361778744 592.3456702048825 345.86895272216236L592.3456702048825 345.86895272216236Q590.5245047620028 345.50471963358643 589.874088532403 345.94700266971427Q589.2496889519871 346.41530235502626 588.3391062305471 346.5974188993142L588.3391062305471 346.5974188993142Q586.3098075941955 346.96165198789015 585.2171083284677 346.2331858107383Q584.1244090627399 345.50471963358643 582.4853601641481 345.32260308929835L582.4853601641481 345.32260308929835Q580.6381780720844 343.47542099723466 580.6381780720844 342.92907136437077L580.6381780720844 342.92907136437077Q578.8170126292048 341.2900224657791 577.906429907765 339.1826738818754Q576.995847186325 337.07532529797174 577.177963730613 335.618392943668L577.177963730613 335.618392943668Q577.5421968191889 334.5256936779401 577.9844798553169 333.51104435976436Q578.4527795406289 332.49639504158847 578.2706629963409 331.03946268728475L578.2706629963409 331.03946268728475Q579.5454788063566 329.4004137886931 579.6495454030926 327.5532316966294Q579.7275953506446 325.7320662537496 580.0918284392205 323.91090081087L580.0918284392205 323.91090081087Q579.7275953506446 322.2718519122782 579.1812457177807 320.2425532759265Q578.6348960849168 318.2392712887589 578.0885464520529 316.7823389344551L578.0885464520529 316.7823389344551Q577.360080274901 314.75304029810343 577.177963730613 313.2180579962477Q576.995847186325 311.6570590452079 577.177963730613 309.9919934974322L577.177963730613 309.9919934974322Q577.5421968191889 307.2602453331127 577.177963730613 306.53177915596075L577.177963730613 306.53177915596075Q576.6316140977491 304.32036397532113 576.6316140977491 304.13824743103316L576.6316140977491 304.13824743103316Q576.4494975534611 303.4097812538813 576.6316140977491 302.7853816734654Q576.8137306420371 302.13496544386555 576.4494975534611 301.7707323552896L576.4494975534611 301.7707323552896Q576.4494975534611 299.03898419097004 576.527547501013 298.02433487279416Q576.6316140977491 297.0096855546184 576.709664045301 295.9169862888905Q576.8137306420371 294.8242870231627 576.8137306420371 293.8096377049869Q576.8137306420371 292.8210050359951 576.2673810091732 291.8844056653712L576.2673810091732 291.8844056653712Q574.7844320056854 291.70228912108325 573.8738492842456 292.0665222096592Q572.9632665628058 292.4307552982351 571.9486172446299 293.08117152783495Q570.959984575638 293.7315877574349 569.9453352574621 294.3559873378508Q568.9306859392864 295.00640356745066 567.6558701292706 295.00640356745066L567.6558701292706 295.00640356745066Q566.3810543192548 295.1885201117386 565.3664050010789 295.1885201117386Q564.377772332087 295.1885201117386 563.2590564171753 295.3706366560266L563.2590564171753 295.3706366560266Q562.8948233285994 295.3706366560266 562.3484736957355 295.55275320031456Q561.8021240628716 295.7348697446025 561.2557744300076 295.55275320031456L561.2557744300076 295.55275320031456Q557.2231938064883 295.3706366560266 554.8556787307447 293.8096377049869Q552.488163655001 292.24863875394715 549.9125153857855 290.4274733110674L549.9125153857855 290.4274733110674Q548.8198161200576 290.60958985535535 547.9872833461698 290.1673068192275Q547.1807672214659 289.69900713391553 546.2701845000261 289.3347740453396L546.2701845000261 289.3347740453396Q544.4230024079624 289.3347740453396 544.0587693193864 288.7884244124757L544.0587693193864 288.7884244124757Q541.5091376993548 288.97054095676367 539.6619556072911 288.5022412714518Q537.8407901644114 288.05995823532385 535.6553916329558 288.4241913238998L535.6553916329558 288.4241913238998Q534.172442629468 288.7884244124757 533.7301595933402 289.69900713391553Q533.2618599080282 290.60958985535535 533.2618599080282 291.98847226210717Q533.2618599080282 293.367354668859 533.3659265047643 294.8242870231627Q533.4439764523162 296.2812193774664 533.2618599080282 297.3739186431943L533.2618599080282 297.3739186431943Q533.6260929966041 297.9202682760582 533.5480430490522 298.4666179089221Q533.4439764523162 299.03898419097004 533.8082095408921 299.7674503681219L533.8082095408921 299.7674503681219Q533.4439764523162 300.6780330895617 533.7301595933402 301.58861581100155Q533.9903260851801 302.4991985324415 533.8082095408921 303.4097812538813L533.8082095408921 303.4097812538813Q533.8082095408921 304.32036397532113 533.7301595933402 305.07484680165703Q533.6260929966041 305.8033129788089 533.8082095408921 306.7138957002487L533.8082095408921 306.7138957002487Q533.9903260851801 308.71717768741644 533.9903260851801 310.7464763237681Q533.9903260851801 312.7497583109358 534.172442629468 314.75304029810343L534.172442629468 314.75304029810343Q534.172442629468 316.2359893015912 533.9903260851801 317.406738514871Q533.8082095408921 318.60350437733484 533.6260929966041 319.51408709877467L533.6260929966041 319.51408709877467Q533.6260929966041 322.2718519122782 533.5480430490522 323.182434633718Q533.4439764523162 324.09301735515794 534.744808911516 323.91090081087L534.744808911516 323.91090081087Q535.6553916329558 324.45725044373387 536.2017412658197 325.3678331651737L536.2017412658197 325.3678331651737Q537.6586736201234 326.4605324309015 538.2050232529874 328.48983106725314L538.2050232529874 328.48983106725314Q538.7513728858513 330.8573461429968 539.0375560268753 332.05411200546064Q539.2977225187152 333.22486121874033 538.9334894301393 335.07204331080413L538.9334894301393 335.07204331080413Q538.5692563415633 337.07532529797174 537.1123239872595 337.98590801941157Q535.6553916329558 338.8964907408514 534.562692367228 340.56155628862723L534.562692367228 340.56155628862723Q533.2618599080282 340.92578937720316 531.9870440980123 341.18595586904314Q530.7122282879966 341.47213901006705 529.6195290222688 341.1079059214911L529.6195290222688 341.1079059214911Q529.4374124779808 340.37943974433915 527.9544634744931 339.6509735671873L527.9544634744931 339.6509735671873Q526.8617642087652 339.83309011147537 526.2373646283494 339.83309011147537Q525.5869483987494 339.83309011147537 524.8584822215976 339.4428403737154L524.8584822215976 339.4428403737154Q523.7657829558698 338.5322576522756 523.1153667262699 338.45420770472356Q522.46495049667 338.3501411079875 521.9186008638061 338.16802456369953L521.9186008638061 338.16802456369953Q520.6437850537902 337.4395583865477 519.9153188766384 337.62167493083564Q519.1868526994865 337.8037914751236 518.6405030666226 337.62167493083564L518.6405030666226 337.62167493083564Q517.7299203451828 337.62167493083564 516.7933209745589 337.1793918947077Q515.882738253119 336.7110922093958 515.1542720759671 336.1647425765319L515.1542720759671 336.1647425765319Q514.4258058988153 334.7078102222282 514.2436893545273 332.7825781826125Q514.0615728102393 330.8573461429968 512.7867570002236 329.2182972444051L512.7867570002236 329.2182972444051Q512.4225239116477 327.73534824091735 512.1363407706237 326.2784158866135Q511.8761742787837 324.8214835323098 511.69405773449574 323.728784266582L511.69405773449574 323.728784266582Q510.39322527529595 322.0897353679902 511.2257580491838 320.1645033283745Q512.0582908230717 318.2392712887589 512.9688735445116 316.7823389344551L512.9688735445116 316.7823389344551Q513.1509900887995 315.8457395638312 513.3331066330875 315.03922343912734Q513.5152231773754 314.20669066523953 513.8794562659514 313.4782244880877L513.8794562659514 313.4782244880877Q514.4258058988153 311.110709412344 514.9721555316792 308.8992942317044L514.9721555316792 308.8992942317044Q514.7900389873912 306.8960122445367 514.9721555316792 305.8033129788089Q515.1542720759671 304.7106137130811 515.1542720759671 303.22766470959334L515.1542720759671 303.22766470959334Q515.882738253119 301.04226617813765 515.986804849855 300.13168345669783Q516.064854797407 299.221100735258 516.2469713416949 298.1023848203462L516.2469713416949 298.1023848203462Q516.611204430271 296.2812193774664 516.5331544827189 296.2031694299145Q516.429087885983 296.09910283317845 516.429087885983 295.7348697446025L516.429087885983 295.7348697446025Q516.7933209745589 294.64217047887473 516.5331544827189 293.9917542492749Q516.2469713416949 293.367354668859 516.7933209745589 292.8210050359951L516.7933209745589 292.8210050359951Q516.2469713416949 289.8811236782035 516.611204430271 288.13800818287575Q517.0014541680309 286.3948926875481 517.3656872566069 284.3916107003804L517.3656872566069 284.3916107003804Q517.3656872566069 282.9346783460767 517.1835707123189 281.6598625360608Q517.0014541680309 280.35903007686113 517.9120368894708 279.8126804439971L517.9120368894708 279.8126804439971Q517.3656872566069 278.53786463398137 517.7299203451828 277.34109877151764Q518.0941534337587 276.1703495582377 518.2762699780467 274.86951709903803L518.2762699780467 274.86951709903803Q518.2762699780467 273.77681783331013 517.9120368894708 272.7881851643183Q517.5478038008948 271.7735358461425 517.5478038008948 270.8629531247027L517.5478038008948 270.8629531247027Q517.5478038008948 270.3166034918387 517.7299203451828 269.7702538589748Q517.9120368894708 269.197887576927 517.9120368894708 268.65153794406297L517.9120368894708 268.65153794406297Q517.9120368894708 267.9230717669111 517.8079702927348 267.19460558975925Q517.7299203451828 266.4661394126074 517.9120368894708 265.9197897797435L517.9120368894708 265.9197897797435Q518.2762699780467 264.09862433686374 518.8226196109106 262.71974193011204Q519.3689692437745 261.3408595233602 519.1868526994865 259.3375775361925L519.1868526994865 259.3375775361925Q519.0047361551985 258.06276172617675 518.5364364698867 256.76192926697695Q518.0941534337587 255.48711345696117 519.1868526994865 254.21229764694536L519.1868526994865 254.21229764694536Q519.5510857880624 252.75536529264164 519.9153188766384 251.0122497973139Q520.2795519652143 249.2691343019862 518.8226196109106 248.35855158054633L518.8226196109106 248.35855158054633Q518.4583865223346 246.90161922624256 518.1722033813107 245.5227368194908Q517.9120368894708 244.14385441273905 517.3656872566069 242.68692205843527L517.3656872566069 242.68692205843527Q517.3656872566069 240.6836400712676 517.8079702927348 238.29010834634002Q518.2762699780467 235.92259327059637 518.0941534337587 234.28354437200468L518.0941534337587 234.28354437200468Q517.3656872566069 233.8932946342447 517.0014541680309 233.34694500138082Q516.611204430271 232.80059536851692 516.064854797407 232.25424573565297L516.064854797407 232.25424573565297Q514.7900389873912 230.9794299256372 514.4258058988153 229.23631443030948Q514.0615728102393 227.4931989349818 513.3331066330875 226.21838312496598L513.3331066330875 226.21838312496598Q513.1509900887995 225.85415003639005 512.7867570002236 224.7614507706622Q512.4225239116477 223.6687515049344 512.4225239116477 223.12240187207047L512.4225239116477 223.12240187207047Q512.4225239116477 222.57605223920658 512.7867570002236 222.10775255389467Q513.1509900887995 221.63945286858274 512.7867570002236 220.91098669143085L512.7867570002236 220.91098669143085Q514.2436893545273 217.99712198282333 516.2469713416949 215.42147371360775Q518.2762699780467 212.87184209357616 520.0974354209263 209.7498441914967L520.0974354209263 209.7498441914967Q520.6437850537902 209.38561110292076 521.3722512309421 209.12544461108078Q522.100717408094 208.83926147005684 522.647067040958 208.83926147005684L522.647067040958 208.83926147005684Q523.5836664115818 208.29291183719292 524.3121325887337 207.74656220432902Q525.0405987658855 207.2002125714651 525.9511814873254 206.83597948288914L525.9511814873254 206.83597948288914Q527.0438807530531 206.65386293860118 528.500813107357 207.01809602717714Q529.9837621108447 207.38232911575307 530.8943448322846 207.38232911575307L530.8943448322846 207.38232911575307Q531.9870440980123 207.38232911575307 533.1838099604762 207.09614597472913Q534.3545591737561 206.83597948288914 535.2911585443799 207.56444566004106L535.2911585443799 207.56444566004106Q536.3838578101077 208.83926147005684 537.4765570758354 209.93196073578466Q538.5692563415633 211.0506766506965 539.1156059744272 212.6897255492882L539.1156059744272 212.6897255492882Q540.9627880664909 214.87512408074386 541.1449046107789 215.70765685463172Q541.3270211550669 216.51417297933557 541.5091376993548 217.81500543853534L541.5091376993548 217.81500543853534Q541.8733707879308 218.90770470426318 542.1335372797707 220.10447056672697Q542.4197204207946 221.2752197800068 542.4197204207946 222.57605223920658L542.4197204207946 222.57605223920658Q542.4197204207946 224.03298459351035 541.9514207354828 225.59398354455007Q541.5091376993548 227.12896584640583 541.3270211550669 228.6119148498936L541.3270211550669 228.6119148498936Q541.1449046107789 230.06884720419734 540.9627880664909 231.16154646992518Q540.780671522203 232.25424573565297 540.2083052401551 233.16482845709285L540.2083052401551 233.16482845709285Q540.598554977915 234.6477774605806 540.3123718368911 236.00064321814838Q540.0261886958672 237.37952562490014 539.1156059744272 238.10799180205206L539.1156059744272 238.10799180205206Q539.1156059744272 239.3828076120678 538.3871397972754 240.1372904384037L538.3871397972754 240.1372904384037Q537.8407901644114 241.41210624841946 537.6586736201234 242.58285546169932Q537.4765570758354 243.77962132416312 536.9302074429716 245.05443713417893L536.9302074429716 245.05443713417893Q536.5659743543956 245.99103650480274 535.9155581247958 246.61543608521865Q535.2911585443799 247.26585231481855 535.1090420000919 248.17643503625837L535.1090420000919 248.17643503625837Q534.9269254558039 249.08701775769825 534.822858859068 250.17971702342604Q534.744808911516 251.27241628915388 534.172442629468 252.20901565977775L534.172442629468 252.20901565977775Q533.2618599080282 256.0334630898251 533.0016934161882 259.7018106247684Q532.7155102751643 263.34414151052783 533.6260929966041 266.2840228683194L533.6260929966041 266.2840228683194Q533.2618599080282 266.64825595689535 533.6260929966041 267.3767221340472Q533.9903260851801 268.1051883111991 533.6260929966041 269.0157710326389L533.6260929966041 269.0157710326389Q534.562692367228 270.49872003612666 536.0976746690837 271.66946924940646Q537.6586736201234 272.8662351118703 540.0261886958672 272.13776893471845L540.0261886958672 272.13776893471845Q542.0554873322187 271.59141930185456 542.2376038765067 271.30523616083053Q542.4197204207946 271.04506966899055 542.7839535093706 271.04506966899055L542.7839535093706 271.04506966899055Q545.3335851294023 271.04506966899055 546.0620513065542 270.8629531247027Q546.81653413289 270.6808365804146 547.7271168543298 271.04506966899055L547.7271168543298 271.04506966899055Q550.0946319300734 271.04506966899055 550.6409815629373 271.12311961654257Q551.1873311958013 271.2271862132786 551.9157973729532 271.2271862132786L551.9157973729532 271.2271862132786Q553.3987463764408 271.04506966899055 554.8556787307447 270.9410030722546Q556.3126110850484 270.8629531247027 557.5874268950643 271.59141930185456L557.5874268950643 271.59141930185456Q558.8882593542639 271.59141930185456 560.0590085675437 271.12311961654257Q561.2557744300076 270.6808365804146 562.1663571514475 271.2271862132786L562.1663571514475 271.2271862132786Q564.1956557877991 271.2271862132786 566.3810543192548 270.6808365804146Q568.5664528507104 270.1344869475507 570.77786803135 270.49872003612666L570.77786803135 270.49872003612666Q572.4169169299419 270.49872003612666 573.3274996513817 269.8483038065268Q574.2380823728215 269.197887576927 575.1486650942613 269.58813731468683ZM540.9627880664909 249.08701775769825L540.9627880664909 249.08701775769825Q540.416438433627 247.81220194768244 540.1302552926031 246.7195026819546Q539.8440721515792 245.60078676704282 541.3270211550669 245.05443713417893L541.3270211550669 245.05443713417893Q543.5124196865224 244.14385441273905 543.9807193718344 244.43003755376301Q544.4230024079624 244.69020404560294 544.7872354965383 244.50808750131498L544.7872354965383 244.50808750131498Q545.1514685851142 245.23655367846683 545.4376517261383 245.5227368194908Q545.6978182179782 245.78290331133078 545.6978182179782 246.35526959337867L545.6978182179782 246.35526959337867Q545.8799347622662 247.26585231481855 545.1514685851142 247.8902518952344Q544.4230024079624 248.5406681248343 544.0587693193864 249.2691343019862L544.0587693193864 249.2691343019862Q543.1481865979465 249.45125084627418 542.4197204207946 249.45125084627418Q541.6912542436428 249.45125084627418 540.9627880664909 249.08701775769825ZM542.6018369650826 253.66594801408147L542.6018369650826 253.66594801408147Q544.4230024079624 255.48711345696117 545.3335851294023 258.97334444761657L545.3335851294023 258.97334444761657Q547.7271168543298 260.9766264347843 547.6230502575938 262.25144224480005Q547.5450003100418 263.55227470399984 546.81653413289 264.5409073729917Q546.0620513065542 265.55555669116757 544.7872354965383 265.9197897797435Q543.5124196865224 266.2840228683194 542.2376038765067 265.3734401468795L542.2376038765067 265.3734401468795Q539.8440721515792 264.8270905140156 538.7513728858513 264.72302391727965Q537.6586736201234 264.64497396972763 537.2944405315475 263.34414151052783L537.2944405315475 263.34414151052783Q537.1123239872595 262.433558789088 537.4765570758354 261.44492612009617Q537.8407901644114 260.4302768019204 536.9302074429716 259.51969408048046L536.9302074429716 259.51969408048046Q537.1123239872595 258.7912279033286 537.1123239872595 258.4269948147527Q537.1123239872595 258.06276172617675 537.2944405315475 257.4903954441288L537.2944405315475 257.4903954441288Q538.5692563415633 256.397696178401 539.6619556072911 255.3049969126732Q540.780671522203 254.21229764694536 542.6018369650826 253.66594801408147ZM603.1425796162408 254.0301811026574L603.1425796162408 254.0301811026574Q604.0531623376806 254.21229764694536 605.2499282001444 255.66923000124913Q606.4466940626081 257.1261623555529 606.993043695472 258.06276172617675L606.993043695472 258.06276172617675Q607.3572767840479 260.06604371334447 606.5247440101601 261.44492612009617Q605.7182278854563 262.79779187766394 604.8076451640164 263.7343912482878L604.8076451640164 263.7343912482878Q601.5035307176489 265.00920705830356 600.5929479962091 263.91650779257577L600.5929479962091 263.91650779257577Q599.5002487304813 262.433558789088 600.0465983633452 259.77986057232044Q600.5929479962091 257.1261623555529 601.139297629073 255.3049969126732L601.139297629073 255.3049969126732Q601.5035307176489 254.94076382409727 602.049880350513 254.6805973322573Q602.5962299833769 254.39441419123332 603.1425796162408 254.0301811026574ZM573.1453831070937 335.07204331080413L573.1453831070937 335.07204331080413Q572.2348003856539 334.88992676651617 571.7665007003418 335.332209802644Q571.324217664214 335.800509487956 570.77786803135 336.1647425765319L570.77786803135 336.1647425765319Q570.2315183984861 335.800509487956 570.0494018541981 335.332209802644Q569.8672853099101 334.88992676651617 569.4770355721503 334.5256936779401L569.4770355721503 334.5256936779401Q569.1128024835743 334.1614605893643 568.4884029031584 333.5890943073164Q567.8379866735586 333.04274467445236 567.8379866735586 332.13216195301254L567.8379866735586 332.13216195301254Q567.4737535849827 329.03618070011703 568.3062863588705 327.47518174907736Q569.1128024835743 325.9141827980376 569.8672853099101 324.8214835323098L569.8672853099101 324.8214835323098Q570.595751487062 324.63936698802183 570.959984575638 324.17106730270984Q571.324217664214 323.728784266582 572.2348003856539 323.91090081087L572.2348003856539 323.91090081087Q572.9632665628058 324.09301735515794 573.6917327399576 325.00360007659776Q574.4201989171095 325.9141827980376 574.7844320056854 326.8247655194774L574.7844320056854 326.8247655194774Q575.7210313763092 329.03618070011703 575.0706151467093 331.50776237259663Q574.4201989171095 333.97934404507623 573.1453831070937 335.07204331080413ZM509.30052600956816 334.1614605893643L509.30052600956816 334.1614605893643Q509.6647590981441 335.07204331080413 509.95094223916806 335.618392943668Q510.211108731008 336.1647425765319 510.02899218672 337.07532529797174L510.02899218672 337.07532529797174Q509.84687564243205 338.71437419656354 508.4940098848643 339.83309011147537Q507.1151274781125 340.92578937720316 505.65819512380875 340.37943974433915L505.65819512380875 340.37943974433915Q505.2679453860488 340.1973232000512 504.46142926134496 339.4428403737154Q503.6288964874571 338.71437419656354 503.4467799431691 337.98590801941157L503.4467799431691 337.98590801941157Q503.2646633988811 337.07532529797174 503.73296308419305 336.24279252408394Q504.175246120321 335.43627639938006 504.5394792088969 334.5256936779401L504.5394792088969 334.5256936779401Q506.3866613009606 333.22486121874033 507.37529396995245 333.51104435976436Q508.3899432881283 333.79722750078827 509.30052600956816 334.1614605893643ZM567.2916370406947 345.86895272216236L567.2916370406947 345.86895272216236Q569.1128024835743 344.3860037186746 569.8672853099101 344.0217706300987Q570.595751487062 343.65753754152263 571.6884507527899 343.47542099723466L571.6884507527899 343.47542099723466Q573.6917327399576 344.0217706300987 574.4201989171095 345.6868361778744L574.4201989171095 345.6868361778744Q574.7844320056854 346.5974188993142 574.3421489695575 347.22181847973013Q573.8738492842456 347.87223470933 573.6917327399576 348.60070088648183L573.6917327399576 348.60070088648183Q573.5096161956697 350.7860994179375 572.7031000709658 350.60398287364956Q571.8705672970779 350.4218663293616 570.959984575638 350.05763324078566L570.959984575638 350.05763324078566Q570.2315183984861 349.69340015220973 569.5811021688862 349.51128360792177Q568.9306859392864 349.3291670636338 568.5664528507104 348.96493397505776L568.5664528507104 348.96493397505776Q567.6558701292706 348.2364677979059 567.2916370406947 345.86895272216236Z " fill="#c3c3c3" transform="matrix(1.4412690802761547,0,0,1.4412690802761547,0,-97.23970392477142)"/></g></svg>